<?xml version="1.0" encoding="UTF-8" standalone="no"?>
<svg
   xmlns:dc="http://purl.org/dc/elements/1.1/"
   xmlns:cc="http://creativecommons.org/ns#"
   xmlns:rdf="http://www.w3.org/1999/02/22-rdf-syntax-ns#"
   xmlns:svg="http://www.w3.org/2000/svg"
   xmlns="http://www.w3.org/2000/svg"
   xmlns:sodipodi="http://sodipodi.sourceforge.net/DTD/sodipodi-0.dtd"
   xmlns:inkscape="http://www.inkscape.org/namespaces/inkscape"
   width="18.082766mm"
   height="21.448709mm"
   viewBox="0 0 18.082766 21.448709"
   version="1.1"
   id="svg43"
   inkscape:version="1.0.1 (3bc2e813f5, 2020-09-07)"
   sodipodi:docname="brave.svg">
  <defs
     id="defs37" />
  <sodipodi:namedview
     id="base"
     pagecolor="#ffffff"
     bordercolor="#666666"
     borderopacity="1.0"
     inkscape:pageopacity="0.0"
     inkscape:pageshadow="2"
     inkscape:zoom="0.35"
     inkscape:cx="111.3149"
     inkscape:cy="134.81876"
     inkscape:document-units="mm"
     inkscape:current-layer="layer1"
     inkscape:document-rotation="0"
     showgrid="false"
     inkscape:window-width="939"
     inkscape:window-height="1020"
     inkscape:window-x="48"
     inkscape:window-y="48"
     inkscape:window-maximized="0" />
  <metadata
     id="metadata40">
    <rdf:RDF>
      <cc:Work
         rdf:about="">
        <dc:format>image/svg+xml</dc:format>
        <dc:type
           rdf:resource="http://purl.org/dc/dcmitype/StillImage" />
        <dc:title></dc:title>
      </cc:Work>
    </rdf:RDF>
  </metadata>
  <g
     inkscape:label="Capa 1"
     inkscape:groupmode="layer"
     id="layer1"
     transform="translate(-76.381266,-112.49587)">
    <path
       d="m 85.424874,116.07201 c 0.03087,5.5e-4 0.366572,0.01 0.858414,0.17653 0.516608,0.17544 1.076079,0.39465 1.334347,0.39465 0.258092,0 2.173288,-0.37274 2.173288,-0.37274 0,0 2.269631,2.79534 2.269631,3.39273 0,0.59736 -0.28568,0.75487 -0.572559,1.0655 -0.287196,0.31062 -1.540792,1.66701 -1.701906,1.84104 -0.160937,0.17434 -0.496076,0.43836 -0.299014,0.91366 0.197203,0.47529 0.487962,1.08024 0.164677,1.69389 -0.323568,0.61348 -0.877676,1.02278 -1.232676,0.95526 -0.354965,-0.0678 -1.188967,-0.51153 -1.495567,-0.71452 -0.306599,-0.20285 -1.278396,-1.01949 -1.278396,-1.33188 0,-0.31256 1.00457,-0.8734 1.190061,-1.00072 0.185773,-0.12764 1.032157,-0.62096 1.049514,-0.81443 0.01736,-0.19364 0.01076,-0.25054 -0.239078,-0.72883 -0.249696,-0.47862 -0.699628,-1.11704 -0.624946,-1.54189 0.07497,-0.42474 0.80063,-0.64576 1.318508,-0.8449 0.517595,-0.19925 1.51458,-0.57545 1.639181,-0.63402 0.124566,-0.0584 0.09232,-0.11426 -0.284974,-0.15063 -0.37719,-0.0365 -1.447764,-0.18122 -1.930364,-0.0442 -0.482741,0.13713 -1.307359,0.34562 -1.374176,0.45628 -0.06685,0.11067 -0.125694,0.11423 -0.05719,0.49583 0.06861,0.38128 0.421958,2.21188 0.456107,2.53697 0.03432,0.32494 0.101282,0.53989 -0.242817,0.62025 -0.343959,0.08 -0.923255,0.21922 -1.122257,0.21922 -0.199143,0 -0.77844,-0.13917 -1.122398,-0.21922 -0.344099,-0.0804 -0.277142,-0.29531 -0.242817,-0.62025 0.03418,-0.32509 0.38735,-2.15569 0.456107,-2.53697 0.06851,-0.3816 0.0097,-0.38516 -0.05719,-0.49583 -0.06682,-0.11066 -0.891434,-0.31916 -1.374175,-0.45628 -0.482565,-0.13698 -1.553174,0.008 -1.930364,0.0442 -0.377296,0.0364 -0.40954,0.0922 -0.284974,0.15063 0.124601,0.0586 1.121586,0.43477 1.639182,0.63402 0.517877,0.19914 1.243541,0.42016 1.318365,0.8449 0.07482,0.42485 -0.375108,1.06327 -0.624804,1.54189 -0.249837,0.47829 -0.256576,0.53519 -0.239219,0.72883 0.01722,0.19347 0.863882,0.68679 1.049655,0.81443 0.185491,0.12732 1.190061,0.68816 1.190061,1.00072 0,0.31239 -0.971762,1.12903 -1.278538,1.33188 -0.306458,0.20299 -1.14046,0.64671 -1.495425,0.71452 -0.355,0.0675 -0.909249,-0.34178 -1.232676,-0.95526 -0.323285,-0.61365 -0.03253,-1.2186 0.164536,-1.69389 0.197203,-0.4753 -0.138077,-0.73932 -0.298873,-0.91366 -0.161114,-0.17403 -1.41471,-1.53042 -1.701892,-1.84104 -0.286907,-0.31063 -0.572576,-0.46814 -0.572576,-1.0655 0,-0.59739 2.269635,-3.39273 2.269635,-3.39273 0,0 1.915195,0.37274 2.173287,0.37274 0.25841,0 0.817739,-0.21921 1.334382,-0.39465 0.516326,-0.17544 0.860707,-0.17653 0.860707,-0.17653 z m -0.0023,9.66364 c 0.117969,0 0.873831,0.27189 1.480291,0.59143 0.60646,0.32015 1.046056,0.54614 1.186497,0.63571 0.140547,0.0896 0.05486,0.2588 -0.07302,0.35069 -0.127882,0.0923 -1.847673,1.449 -2.014713,1.59893 -0.167005,0.15008 -0.412151,0.39787 -0.57905,0.39787 -0.166722,0 -0.412044,-0.24779 -0.578908,-0.39787 -0.167005,-0.14993 -1.886797,-1.5066 -2.014679,-1.59893 -0.128023,-0.0919 -0.213606,-0.26112 -0.0732,-0.35069 0.140441,-0.0896 0.580038,-0.31556 1.186498,-0.63571 0.606601,-0.31954 1.362463,-0.59143 1.480291,-0.59143 z m 2.902552,-12.35646 h -5.8051 l -1.634772,1.88954 c -0.109961,0.12722 -0.281658,0.17918 -0.442066,0.13371 -0.0084,-0.002 -0.02921,-0.008 -0.06121,-0.0153 -0.05581,-0.0132 -0.119874,-0.0267 -0.190288,-0.0391 -0.308,-0.055 -0.624261,-0.0751 -0.909101,-0.041 -0.30758,0.0367 -0.544051,0.13314 -0.697011,0.289 -0.317638,0.32371 -0.634175,0.65444 -0.934861,0.97413 -0.07097,0.0757 -0.137531,0.14689 -0.199267,0.21304 l 0.368349,0.92121 c 0.03969,0.0997 0.04245,0.21071 0.0077,0.31213 l -0.558793,1.62624 c 0.01516,0.0586 0.02081,0.0799 0.05223,0.20105 0.06821,0.26387 0.14442,0.55795 0.226412,0.87478 0.234266,0.90495 0.468532,1.81046 0.687367,2.6567 0.541154,2.09409 0.894619,3.46756 0.981025,3.81416 0.41727,1.67845 0.682954,2.14602 1.679833,2.86054 1.030217,0.73847 3.193309,2.22992 3.595299,2.48582 0.05059,0.0324 0.1028,0.0673 0.16951,0.11341 0.02452,0.017 0.13462,0.0937 0.164253,0.11411 0.167852,0.11534 0.280282,0.18493 0.384316,0.23454 0.0926,0.0437 0.164289,0.0634 0.213749,0.0634 0.04932,0 0.121002,-0.0197 0.213606,-0.0634 0.104035,-0.0496 0.216465,-0.1192 0.384316,-0.23454 0.02963,-0.0204 0.139595,-0.0971 0.164254,-0.11411 0.06671,-0.0462 0.118956,-0.081 0.16951,-0.11341 0.401989,-0.2559 2.565082,-1.74735 3.595299,-2.48582 0.996879,-0.71452 1.262697,-1.18209 1.679821,-2.86054 0.08643,-0.3466 0.439738,-1.72007 0.977054,-3.79899 0.222673,-0.86141 0.457094,-1.76707 0.691338,-2.67215 0.08213,-0.31669 0.158221,-0.61073 0.226413,-0.8745 0.03157,-0.12115 0.03708,-0.14249 0.05225,-0.20105 l -0.5588,-1.62624 c -0.03471,-0.10142 -0.03196,-0.21247 0.0077,-0.31213 l 0.368356,-0.92121 c -0.06174,-0.0661 -0.128305,-0.13737 -0.199248,-0.21304 -0.300708,-0.31969 -0.61722,-0.65042 -0.934861,-0.97413 -0.152965,-0.15586 -0.389432,-0.25234 -0.697019,-0.289 -0.284833,-0.0341 -0.601098,-0.014 -0.909108,0.041 -0.07056,0.0124 -0.134479,0.0259 -0.190288,0.0391 -0.03196,0.008 -0.05278,0.0129 -0.06121,0.0153 -0.160373,0.0455 -0.332105,-0.006 -0.442066,-0.13371 z m 0.196109,-0.88332 c 0.124707,0 0.243346,0.0546 0.325755,0.14978 l 1.595084,1.84369 c 0.01986,-0.004 0.04054,-0.008 0.0616,-0.0115 0.384211,-0.0683 0.780274,-0.0934 1.160181,-0.048 0.485775,0.0577 0.9011,0.22737 1.209922,0.54184 0.322579,0.32868 0.643396,0.66396 0.94809,0.98806 0.106644,0.11356 0.203658,0.21759 0.289242,0.30991 0.02992,0.0324 0.05651,0.0609 0.07923,0.0856 0.143334,0.15642 0.176107,0.33887 0.112607,0.49815 l -0.411621,1.02927 0.548463,1.59618 c 0.02851,0.0832 0.03196,0.17321 0.0099,0.25837 -0.0039,0.015 -0.0039,0.015 -0.02261,0.0867 -0.02522,0.0979 -0.02522,0.0979 -0.06339,0.24504 -0.06833,0.26359 -0.144392,0.55767 -0.226413,0.8745 -0.234244,0.9048 -0.468524,1.81031 -0.687352,2.65659 -0.539785,2.08841 -0.893656,3.46354 -0.978817,3.80598 -0.463973,1.86559 -0.831921,2.51326 -2.021452,3.36587 -1.042211,0.74731 -3.216769,2.24661 -3.634705,2.51257 -0.04011,0.0255 -0.08435,0.0551 -0.14291,0.0958 -0.02272,0.0154 -0.133103,0.0923 -0.164817,0.11438 -0.203271,0.13987 -0.348369,0.22986 -0.504508,0.30386 -0.198155,0.0937 -0.387773,0.14607 -0.580002,0.14607 -0.19237,0 -0.381988,-0.0524 -0.580143,-0.14607 -0.156276,-0.074 -0.301232,-0.16399 -0.504502,-0.30386 -0.03172,-0.022 -0.142064,-0.0989 -0.164959,-0.11437 -0.05842,-0.0406 -0.1028,-0.0703 -0.14277,-0.0958 -0.417935,-0.26596 -2.592493,-1.76526 -3.634704,-2.51257 -1.189524,-0.85261 -1.557461,-1.50028 -2.021445,-3.36587 -0.08516,-0.34244 -0.439042,-1.71757 -0.974961,-3.79099 -0.222691,-0.86127 -0.45696,-1.76678 -0.691225,-2.67158 -0.08199,-0.31683 -0.158061,-0.61091 -0.22655,-0.8745 -0.03803,-0.1469 -0.03803,-0.1469 -0.06339,-0.24504 -0.0186,-0.0717 -0.0186,-0.0717 -0.02246,-0.0867 -0.02205,-0.0852 -0.0186,-0.17512 0.0099,-0.25838 l 0.54846,-1.59617 -0.41162,-1.02927 c -0.06367,-0.15928 -0.03073,-0.34173 0.08447,-0.46757 0.05085,-0.0552 0.07745,-0.0838 0.107349,-0.11617 0.08558,-0.0923 0.182591,-0.19636 0.28925,-0.30991 0.304683,-0.3241 0.625492,-0.65938 0.94809,-0.98806 0.308818,-0.31447 0.724161,-0.48409 1.209918,-0.54184 0.379924,-0.0455 0.77597,-0.0204 1.160181,0.048 0.0212,0.004 0.04173,0.008 0.06159,0.0115 l 1.595084,-1.84369 c 0.08241,-0.0952 0.201048,-0.14978 0.325755,-0.14978 h 6.197177"
       style="fill:#ffffff;fill-opacity:1;fill-rule:nonzero;stroke:none;stroke-width:0.0352777"
       id="path26" />
  </g>
</svg>
